<svg width="167" height="114" viewBox="0 0 167 114" fill="none" xmlns="http://www.w3.org/2000/svg">
<path d="M32.952 65.272H69.752V69.624H32.952V65.272ZM30.52 50.04H72.056V72.184H67.32V54.456H35.192V72.184H30.52V50.04ZM57.592 33.4L61.176 30.648C63.4373 32.0133 65.7627 33.5707 68.152 35.32C70.584 37.0267 72.8453 38.776 74.936 40.568C77.0267 42.36 78.712 44.024 79.992 45.56L76.024 48.696C74.8293 47.16 73.208 45.496 71.16 43.704C69.1547 41.8693 66.9573 40.056 64.568 38.264C62.1787 36.4293 59.8533 34.808 57.592 33.4ZM43.768 26.36L48.824 28.088C47.6293 29.8373 46.328 31.672 44.92 33.592C43.5547 35.512 42.168 37.3467 40.76 39.096C39.352 40.8027 38.008 42.3173 36.728 43.64L32.696 41.976C33.976 40.6107 35.2773 39.032 36.6 37.24C37.9653 35.4053 39.2667 33.528 40.504 31.608C41.784 29.688 42.872 27.9387 43.768 26.36ZM22.52 40.696C25.592 40.6533 29.048 40.6107 32.888 40.568C36.7707 40.4827 40.9307 40.3973 45.368 40.312C49.8053 40.2267 54.3707 40.12 59.064 39.992C63.7573 39.864 68.4293 39.7573 73.08 39.672L72.824 43.832C68.2587 43.96 63.672 44.1093 59.064 44.28C54.4987 44.4507 50.0187 44.6 45.624 44.728C41.272 44.856 37.1547 44.984 33.272 45.112C29.432 45.1973 25.9547 45.2827 22.84 45.368L22.52 40.696ZM22.968 18.616H79.16V23.032H22.968V18.616ZM37.368 13.24H42.104V29.432H37.368V13.24ZM59.64 13.24H64.376V29.432H59.64V13.24Z" fill="#DED7C4"/>
<path d="M89.464 17.4H140.6V22.136H89.464V17.4ZM86.328 64.888H143.736V69.56H86.328V64.888ZM112.056 19.192H117.176V67.832H112.056V19.192ZM123 50.104L126.456 47.416C127.779 48.6107 129.187 49.912 130.68 51.32C132.216 52.728 133.667 54.1147 135.032 55.48C136.397 56.8027 137.528 57.976 138.424 59L134.776 62.2C133.923 61.1333 132.813 59.896 131.448 58.488C130.125 57.08 128.717 55.6507 127.224 54.2C125.731 52.7067 124.323 51.3413 123 50.104ZM92.216 39.672H138.168V44.344H92.216V39.672Z" fill="#DED7C4"/>
<rect x="1.5" y="1.5" width="164" height="111" rx="6.5" stroke="#DED7C4" stroke-width="3"/>
<path d="M28.3822 92.9972L26.3666 95.4349V99.7341H23V84.2659H26.3666V91.6233H26.4995L28.6923 88.6316L32.1697 84.2659H35.9793L30.7743 90.626L36.4444 99.7341H32.4798L28.3822 92.9972Z" fill="#DED7C4"/>
<path d="M43.737 100C42.7182 100 41.7879 99.8301 40.9462 99.4903C40.1046 99.1505 39.3884 98.6482 38.7978 97.9834C38.2071 97.3038 37.7494 96.4691 37.4245 95.4792C37.0997 94.4746 36.9373 93.3149 36.9373 92C36.9373 90.6851 37.0997 89.5328 37.4245 88.5429C37.7494 87.5383 38.2071 86.7036 38.7978 86.0388C39.3884 85.3592 40.1046 84.8495 40.9462 84.5097C41.7879 84.1699 42.7182 84 43.737 84C44.7559 84 45.6861 84.1699 46.5278 84.5097C47.3694 84.8495 48.0856 85.3592 48.6762 86.0388C49.2669 86.7036 49.7246 87.5383 50.0495 88.5429C50.3743 89.5328 50.5367 90.6851 50.5367 92C50.5367 93.3149 50.3743 94.4746 50.0495 95.4792C49.7246 96.4691 49.2669 97.3038 48.6762 97.9834C48.0856 98.6482 47.3694 99.1505 46.5278 99.4903C45.6861 99.8301 44.7559 100 43.737 100ZM43.737 97.0083C44.7559 97.0083 45.5458 96.6759 46.1069 96.0111C46.6828 95.3463 46.9708 94.3934 46.9708 93.1524V90.8476C46.9708 89.6066 46.6828 88.6537 46.1069 87.9889C45.5458 87.3241 44.7559 86.9917 43.737 86.9917C42.7182 86.9917 41.9208 87.3241 41.3449 87.9889C40.7838 88.6537 40.5033 89.6066 40.5033 90.8476V93.1524C40.5033 94.3934 40.7838 95.3463 41.3449 96.0111C41.9208 96.6759 42.7182 97.0083 43.737 97.0083Z" fill="#DED7C4"/>
<path d="M53.3467 84.2659H59.1719C60.1908 84.2659 61.121 84.4284 61.9627 84.7535C62.8044 85.0785 63.5205 85.566 64.1111 86.2161C64.7018 86.8513 65.1595 87.6565 65.4844 88.6316C65.8092 89.5919 65.9717 90.7147 65.9717 92C65.9717 93.2853 65.8092 94.4155 65.4844 95.3906C65.1595 96.3509 64.7018 97.156 64.1111 97.8061C63.5205 98.4414 62.8044 98.9215 61.9627 99.2465C61.121 99.5716 60.1908 99.7341 59.1719 99.7341H53.3467V84.2659ZM59.1719 96.7424C60.176 96.7424 60.966 96.4617 61.5419 95.9003C62.1177 95.3389 62.4057 94.4377 62.4057 93.1967V90.8033C62.4057 89.5623 62.1177 88.6611 61.5419 88.0997C60.966 87.5383 60.176 87.2576 59.1719 87.2576H56.7134V96.7424H59.1719Z" fill="#DED7C4"/>
<path d="M68.7905 99.7341V84.2659H79.3113V87.2576H72.1571V90.4266H78.2924V93.3961H72.1571V96.7424H79.3113V99.7341H68.7905Z" fill="#DED7C4"/>
<path d="M87.6265 92.9972L85.6109 95.4349V99.7341H82.2443V84.2659H85.6109V91.6233H85.7438L87.9366 88.6316L91.4139 84.2659H95.2236L90.0186 90.626L95.6887 99.7341H91.724L87.6265 92.9972Z" fill="#DED7C4"/>
<path d="M107.19 99.7341L106.083 96.0554H100.922L99.8148 99.7341H96.4039L101.498 84.2659H105.662L110.69 99.7341H107.19ZM103.536 87.3241H103.425L101.72 93.1967H105.263L103.536 87.3241Z" fill="#DED7C4"/>
<path d="M124.391 89.5845H124.324L123.195 91.8449L120.182 97.3186L117.237 91.867L116.063 89.4294H115.996V99.7341H112.829V84.2659H116.395L120.182 91.5125H120.227L123.97 84.2659H127.558V99.7341H124.391V89.5845Z" fill="#DED7C4"/>
<path d="M140.5 99.7341L139.393 96.0554H134.232L133.125 99.7341H129.714L134.808 84.2659H138.972L144 99.7341H140.5ZM136.846 87.3241H136.735L135.03 93.1967H138.574L136.846 87.3241Z" fill="#DED7C4"/>
</svg>
